<svg xmlns="http://www.w3.org/2000/svg" width="31.594" height="36.455" viewBox="0 0 31.594 36.455">
  <g id="devices" transform="translate(-6 -2)">
    <g id="Group_316" data-name="Group 316" transform="translate(6 2)">
      <path id="Path_135" data-name="Path 135" d="M12.076,33.594H9.038a1.823,1.823,0,0,1-1.823-1.823V5.038A1.823,1.823,0,0,1,9.038,3.215h15.8a1.823,1.823,0,0,1,1.823,1.823v7.9H9.038a.608.608,0,0,0,0,1.215h17.62V17.19a.608.608,0,1,0,1.215,0V5.038A3.042,3.042,0,0,0,24.835,2H9.038A3.042,3.042,0,0,0,6,5.038V31.772A3.042,3.042,0,0,0,9.038,34.81h3.038a.608.608,0,0,0,0-1.215Z" transform="translate(-6 -2)" fill="#fff"/>
      <path id="Path_136" data-name="Path 136" d="M12.823,24A1.823,1.823,0,0,0,11,25.823v3.646a1.823,1.823,0,0,0,3.646,0V25.823A1.823,1.823,0,0,0,12.823,24Zm.608,5.468a.608.608,0,1,1-1.215,0V25.823a.608.608,0,0,1,1.215,0Z" transform="translate(-7.962 -10.633)" fill="#fff"/>
      <path id="Path_137" data-name="Path 137" d="M14.646,11.038V9.823a1.823,1.823,0,1,0-3.645,0v1.215a1.823,1.823,0,0,0,3.646,0Zm-2.43,0V9.823a.608.608,0,1,1,1.215,0v1.215a.608.608,0,0,1-1.215,0Z" transform="translate(-7.962 -4.354)" fill="#fff"/>
      <path id="Path_138" data-name="Path 138" d="M27.506,35.215a.608.608,0,1,0,0-1.215h-7.9a.608.608,0,0,0-.608.608V49.19a.608.608,0,0,0,.608.608h7.9a.608.608,0,1,0,0-1.215H20.215V38.861h7.291a.608.608,0,1,0,0-1.215H20.215v-2.43Z" transform="translate(-11.101 -14.557)" fill="#fff"/>
      <path id="Path_139" data-name="Path 139" d="M30.076,44.608A.608.608,0,0,0,29.468,44H26.43A2.43,2.43,0,0,0,24,46.43v1.823a2.43,2.43,0,0,0,2.43,2.43h3.038a.608.608,0,1,0,0-1.215H26.43a1.215,1.215,0,0,1-1.215-1.215V46.43a1.215,1.215,0,0,1,.987-1.192l2.837,2.837a.608.608,0,1,0,.859-.859l-2-2h1.571A.608.608,0,0,0,30.076,44.608Z" transform="translate(-13.063 -18.482)" fill="#fff"/>
      <path id="Path_140" data-name="Path 140" d="M48.759,34.861a.608.608,0,0,0,.608-.608V32.43A2.43,2.43,0,0,0,46.937,30H38.43A2.43,2.43,0,0,0,36,32.43V47.012a2.43,2.43,0,0,0,2.43,2.43h8.506a2.43,2.43,0,0,0,2.43-2.43V36.683a.608.608,0,1,0-1.215,0V47.012a1.215,1.215,0,0,1-1.215,1.215H38.43a1.215,1.215,0,0,1-1.215-1.215V32.43a1.215,1.215,0,0,1,1.215-1.215h8.506a1.215,1.215,0,0,1,1.215,1.215v1.823A.608.608,0,0,0,48.759,34.861Z" transform="translate(-17.773 -12.988)" fill="#fff"/>
      <path id="Path_141" data-name="Path 141" d="M46.087,19.284a3.652,3.652,0,0,1,5.156,0,.608.608,0,1,0,.859-.859,4.867,4.867,0,0,0-6.874,0,.608.608,0,1,0,.859.859Z" transform="translate(-21.324 -7.888)" fill="#fff"/>
      <path id="Path_142" data-name="Path 142" d="M51.064,22.764a.608.608,0,0,0,.43-1.037,2.487,2.487,0,0,0-3.437,0,.608.608,0,1,0,.859.859,1.244,1.244,0,0,1,1.718,0A.608.608,0,0,0,51.064,22.764Z" transform="translate(-22.434 -9.471)" fill="#fff"/>
      <ellipse id="Ellipse_51" data-name="Ellipse 51" cx="0.5" cy="1.5" rx="0.5" ry="1.5" transform="translate(26.798 13.227)" fill="#fff"/>
      <path id="Path_143" data-name="Path 143" d="M44.608,56a.608.608,0,1,0,0,1.215h2.43a.608.608,0,1,0,0-1.215Z" transform="translate(-20.912 -23.191)" fill="#fff"/>
      <circle id="Ellipse_52" data-name="Ellipse 52" cx="0.5" cy="0.5" r="0.5" transform="translate(20.798 19.227)" fill="#fff"/>
      <circle id="Ellipse_53" data-name="Ellipse 53" cx="0.5" cy="0.5" r="0.5" transform="translate(22.798 19.227)" fill="#fff"/>
      <path id="Path_144" data-name="Path 144" d="M46.608,44.253a.608.608,0,0,0,.608-.608V40.608a.608.608,0,1,0-1.215,0v3.038A.608.608,0,0,0,46.608,44.253Z" transform="translate(-21.697 -16.912)" fill="#fff"/>
      <path id="Path_145" data-name="Path 145" d="M48.3,44.325a3.615,3.615,0,0,0-.911-2.388.608.608,0,0,0-.911.805,2.362,2.362,0,0,1,.608,1.583,2.43,2.43,0,0,1-4.861,0,2.362,2.362,0,0,1,.608-1.583.608.608,0,0,0-.911-.805,3.639,3.639,0,1,0,6.38,2.388Z" transform="translate(-19.742 -17.591)" fill="#fff"/>
    </g>
  </g>
</svg>
