<svg xmlns="http://www.w3.org/2000/svg" xmlns:xlink="http://www.w3.org/1999/xlink" width="90" height="90" viewBox="0 0 90 90">
  <defs>
    <filter id="Ellipse_81" x="0" y="0" width="90" height="90" filterUnits="userSpaceOnUse">
      <feOffset input="SourceAlpha"/>
      <feGaussianBlur stdDeviation="5" result="blur"/>
      <feFlood flood-opacity="0.329"/>
      <feComposite operator="in" in2="blur"/>
      <feComposite in="SourceGraphic"/>
    </filter>
  </defs>
  <g id="mylocation" transform="translate(-1061 -653)">
    <g transform="matrix(1, 0, 0, 1, 1061, 653)" filter="url(#Ellipse_81)">
      <circle id="Ellipse_81-2" data-name="Ellipse 81" cx="30" cy="30" r="30" transform="translate(15 15)" fill="#fff"/>
    </g>
    <path id="mylocation-2" data-name="mylocation" d="M18,12a6,6,0,1,0,6,6A6,6,0,0,0,18,12Zm13.41,4.5A13.491,13.491,0,0,0,19.5,4.59V1.5h-3V4.59A13.491,13.491,0,0,0,4.59,16.5H1.5v3H4.59A13.491,13.491,0,0,0,16.5,31.41V34.5h3V31.41A13.491,13.491,0,0,0,31.41,19.5H34.5v-3ZM18,28.5A10.5,10.5,0,1,1,28.5,18,10.492,10.492,0,0,1,18,28.5Z" transform="translate(1087.987 680.5)" fill="#26a69a"/>
  </g>
</svg>
