<svg xmlns="http://www.w3.org/2000/svg" width="232" height="172.868" viewBox="0 0 232 172.868">
  <g id="Relaxinghome-rafiki" transform="translate(0 -55)">
    <g id="freepik--background-complete--inject-143" transform="translate(0 55)">
      <rect id="Rectangle_294" data-name="Rectangle 294" width="232" height="0.116" transform="translate(0 151.914)" fill="#ebebeb"/>
      <rect id="Rectangle_295" data-name="Rectangle 295" width="15.368" height="0.116" transform="translate(193.386 159.379)" fill="#ebebeb"/>
      <rect id="Rectangle_296" data-name="Rectangle 296" width="4.032" height="0.116" transform="translate(149.654 160.641)" fill="#ebebeb"/>
      <rect id="Rectangle_297" data-name="Rectangle 297" width="8.904" height="0.116" transform="translate(184.018 155.073)" fill="#ebebeb"/>
      <rect id="Rectangle_298" data-name="Rectangle 298" width="20.04" height="0.116" transform="translate(24.341 155.853)" fill="#ebebeb"/>
      <rect id="Rectangle_299" data-name="Rectangle 299" width="2.937" height="0.116" transform="translate(48.516 155.853)" fill="#ebebeb"/>
      <rect id="Rectangle_300" data-name="Rectangle 300" width="43.468" height="0.116" transform="translate(61.002 157.811)" fill="#ebebeb"/>
      <path id="Path_375" data-name="Path 375" d="M130.449,186.219H40.855a2.649,2.649,0,0,1-2.645-2.649V57.626A2.649,2.649,0,0,1,40.855,55h89.594a2.649,2.649,0,0,1,2.649,2.649V183.57A2.649,2.649,0,0,1,130.449,186.219ZM40.855,55.093a2.533,2.533,0,0,0-2.529,2.533V183.57a2.533,2.533,0,0,0,2.529,2.533h89.594a2.538,2.538,0,0,0,2.533-2.533V57.626a2.538,2.538,0,0,0-2.533-2.533Z" transform="translate(-20.481 -55)" fill="#ebebeb"/>
      <path id="Path_376" data-name="Path 376" d="M346.748,186.219h-89.6a2.654,2.654,0,0,1-2.649-2.649V57.626A2.654,2.654,0,0,1,257.149,55h89.6a2.649,2.649,0,0,1,2.64,2.626V183.57A2.649,2.649,0,0,1,346.748,186.219Zm-89.6-131.126a2.538,2.538,0,0,0-2.533,2.533V183.57a2.538,2.538,0,0,0,2.533,2.533h89.6a2.538,2.538,0,0,0,2.533-2.533V57.626a2.538,2.538,0,0,0-2.533-2.533Z" transform="translate(-136.412 -55)" fill="#ebebeb"/>
      <rect id="Rectangle_301" data-name="Rectangle 301" width="14.171" height="60.83" transform="translate(43.862 151.914) rotate(180)" fill="#e6e6e6"/>
      <path id="Path_377" data-name="Path 377" d="M66.686,373.556h-2.7V365.9h5.517Z" transform="translate(-34.299 -221.642)" fill="#f0f0f0"/>
      <rect id="Rectangle_302" data-name="Rectangle 302" width="14.171" height="60.83" transform="translate(115.086 151.914) rotate(180)" fill="#e6e6e6"/>
      <rect id="Rectangle_303" data-name="Rectangle 303" width="73.572" height="57.058" transform="translate(103.263 148.146) rotate(180)" fill="#f0f0f0"/>
      <path id="Path_378" data-name="Path 378" d="M68.49,256.12h33.8v44.326H68.49Z" transform="translate(-36.711 -162.8)" fill="#e6e6e6"/>
      <path id="Path_379" data-name="Path 379" d="M145.22,256.12h33.793v44.326H145.22Z" transform="translate(-77.838 -162.8)" fill="#e6e6e6"/>
      <path id="Path_380" data-name="Path 380" d="M155.979,265.664a2.394,2.394,0,1,1-2.39-2.394A2.394,2.394,0,0,1,155.979,265.664Z" transform="translate(-81.038 -166.633)" fill="#fafafa"/>
      <path id="Path_381" data-name="Path 381" d="M129.818,265.664a2.394,2.394,0,1,1-2.394-2.394A2.394,2.394,0,0,1,129.818,265.664Z" transform="translate(-67.016 -166.633)" fill="#fafafa"/>
      <path id="Path_382" data-name="Path 382" d="M213.491,373.556h2.691V365.9H210.67Z" transform="translate(-112.919 -221.642)" fill="#f0f0f0"/>
      <rect id="Rectangle_304" data-name="Rectangle 304" width="12.282" height="73.052" transform="translate(144.281 151.914) rotate(180)" fill="#e6e6e6"/>
      <path id="Path_383" data-name="Path 383" d="M286.814,374.735H284.48V368.1h4.779Z" transform="translate(-152.481 -222.822)" fill="#f0f0f0"/>
      <rect id="Rectangle_305" data-name="Rectangle 305" width="12.282" height="73.052" transform="translate(206.007 151.914) rotate(180)" fill="#e6e6e6"/>
      <rect id="Rectangle_306" data-name="Rectangle 306" width="63.763" height="68.983" transform="translate(195.766 147.84) rotate(180)" fill="#f0f0f0"/>
      <path id="Path_384" data-name="Path 384" d="M288.38,228.86h60.144v13.057H288.38Z" transform="translate(-154.572 -148.189)" fill="#e6e6e6"/>
      <path id="Path_385" data-name="Path 385" d="M288.38,260.25h29.292v44.312H288.38Z" transform="translate(-154.572 -165.014)" fill="#e6e6e6"/>
      <path id="Path_386" data-name="Path 386" d="M354.88,260.25h29.288v44.312H354.88Z" transform="translate(-190.216 -165.014)" fill="#e6e6e6"/>
      <path id="Path_387" data-name="Path 387" d="M364.208,303.354a2.074,2.074,0,1,1-2.074-2.074A2.074,2.074,0,0,1,364.208,303.354Z" transform="translate(-192.992 -187.006)" fill="#fafafa"/>
      <path id="Path_388" data-name="Path 388" d="M341.528,303.354a2.074,2.074,0,1,1-2.069-2.074A2.074,2.074,0,0,1,341.528,303.354Z" transform="translate(-180.836 -187.006)" fill="#fafafa"/>
      <path id="Path_389" data-name="Path 389" d="M414.05,374.735h2.329V368.1H411.6Z" transform="translate(-220.618 -222.822)" fill="#f0f0f0"/>
      <path id="Path_390" data-name="Path 390" d="M352.278,240.749a2.074,2.074,0,1,1-2.074-2.069A2.074,2.074,0,0,1,352.278,240.749Z" transform="translate(-186.598 -153.452)" fill="#fafafa"/>
      <path id="Path_391" data-name="Path 391" d="M183.568,119.474H181.7l-6.408-3.044h7.651Z" transform="translate(-93.955 -87.926)" fill="#e6e6e6"/>
      <path id="Path_392" data-name="Path 392" d="M181.228,119.474h-1.87l-6.408-3.044h1.875Z" transform="translate(-92.701 -87.926)" fill="#f5f5f5"/>
      <path id="Path_393" data-name="Path 393" d="M85.792,119.474h-1.87L77.51,116.43h7.656Z" transform="translate(-41.545 -87.926)" fill="#e6e6e6"/>
      <path id="Path_394" data-name="Path 394" d="M83.458,119.474h-1.87L75.18,116.43h1.87Z" transform="translate(-40.296 -87.926)" fill="#f5f5f5"/>
      <rect id="Rectangle_307" data-name="Rectangle 307" width="12.468" height="2.914" transform="translate(81.766 25.59)" fill="#e6e6e6"/>
      <rect id="Rectangle_308" data-name="Rectangle 308" width="51.606" height="2.914" transform="translate(81.766 28.504) rotate(180)" fill="#f5f5f5"/>
      <path id="Path_395" data-name="Path 395" d="M183.568,175.474H181.7l-6.408-3.044h7.651Z" transform="translate(-93.955 -117.942)" fill="#e6e6e6"/>
      <path id="Path_396" data-name="Path 396" d="M181.228,175.474h-1.87l-6.408-3.044h1.875Z" transform="translate(-92.701 -117.942)" fill="#f5f5f5"/>
      <path id="Path_397" data-name="Path 397" d="M85.792,175.474h-1.87L77.51,172.43h7.656Z" transform="translate(-41.545 -117.942)" fill="#e6e6e6"/>
      <path id="Path_398" data-name="Path 398" d="M83.458,175.474h-1.87L75.18,172.43h1.87Z" transform="translate(-40.296 -117.942)" fill="#f5f5f5"/>
      <rect id="Rectangle_309" data-name="Rectangle 309" width="12.468" height="2.914" transform="translate(81.766 51.574)" fill="#e6e6e6"/>
      <rect id="Rectangle_310" data-name="Rectangle 310" width="51.606" height="2.914" transform="translate(81.766 54.487) rotate(180)" fill="#f5f5f5"/>
      <rect id="Rectangle_311" data-name="Rectangle 311" width="14.528" height="15.465" transform="translate(44.957 36.108)" fill="#e0e0e0"/>
      <rect id="Rectangle_312" data-name="Rectangle 312" width="3.721" height="15.465" transform="translate(44.957 51.574) rotate(180)" fill="#f0f0f0"/>
      <rect id="Rectangle_313" data-name="Rectangle 313" width="10.913" height="17.85" transform="translate(52.381 33.724)" fill="#e6e6e6"/>
      <rect id="Rectangle_314" data-name="Rectangle 314" width="3.155" height="17.85" transform="translate(52.386 51.574) rotate(180)" fill="#f0f0f0"/>
      <rect id="Rectangle_315" data-name="Rectangle 315" width="9.201" height="15.465" transform="translate(55.596 36.108)" fill="#f0f0f0"/>
      <rect id="Rectangle_316" data-name="Rectangle 316" width="2.102" height="15.465" transform="translate(55.596 51.574) rotate(180)" fill="#fafafa"/>
      <rect id="Rectangle_317" data-name="Rectangle 317" width="12.069" height="12.848" transform="translate(63.127 38.725)" fill="#e6e6e6"/>
      <rect id="Rectangle_318" data-name="Rectangle 318" width="3.09" height="12.848" transform="translate(63.127 51.574) rotate(180)" fill="#fafafa"/>
      <rect id="Rectangle_319" data-name="Rectangle 319" width="9.067" height="14.829" transform="translate(69.294 36.744)" fill="#e6e6e6"/>
      <rect id="Rectangle_320" data-name="Rectangle 320" width="2.622" height="14.829" transform="translate(69.298 51.574) rotate(180)" fill="#f0f0f0"/>
      <rect id="Rectangle_321" data-name="Rectangle 321" width="8.807" height="12.848" transform="translate(71.966 38.725)" fill="#f0f0f0"/>
      <rect id="Rectangle_322" data-name="Rectangle 322" width="1.745" height="12.848" transform="translate(71.962 51.574) rotate(180)" fill="#fafafa"/>
      <path id="Path_399" data-name="Path 399" d="M345.1,91.191c-3.22.422-6.185,2.872-5.178,6.194,1.67,5.5-6.347,4.988-6.547,13.591-.288,12.148,12.064,4.055,11.229,15.6-.617,8.4,11.136,16.342,14.723,5.846,3.93-11.493,7.447-2.784,12.454-15.414,3.461-8.746-8.626-12.528-4.1-14.593,3.308-1.494,5.944-4.719,2.854-7.888-4.208-4.348,1.392-5.948-1.424-8.964s-4.487.552-9.419-2.32c-4.413-2.58-9.967,1.5-9.883,4.761C349.9,91.005,348.338,90.764,345.1,91.191Z" transform="translate(-178.686 -69.698)" fill="#e6e6e6"/>
      <path id="Path_400" data-name="Path 400" d="M345,182.4s.4,19.882,15.6,19.882,15.6-19.882,15.6-19.882Z" transform="translate(-184.92 -123.286)" fill="#f0f0f0"/>
      <rect id="Rectangle_323" data-name="Rectangle 323" width="16.393" height="6.914" transform="translate(36.503 18.676)" fill="#f0f0f0"/>
      <rect id="Rectangle_324" data-name="Rectangle 324" width="16.931" height="2.088" transform="translate(35.965 16.588)" fill="#f0f0f0"/>
      <rect id="Rectangle_325" data-name="Rectangle 325" width="5.025" height="2.088" transform="translate(57.921 18.676) rotate(180)" fill="#ebebeb"/>
      <rect id="Rectangle_326" data-name="Rectangle 326" width="4.589" height="6.914" transform="translate(57.485 25.59) rotate(180)" fill="#ebebeb"/>
      <rect id="Rectangle_327" data-name="Rectangle 327" width="20.982" height="0.645" transform="translate(36.503 18.676)" fill="#e0e0e0" opacity="0.7"/>
      <rect id="Rectangle_328" data-name="Rectangle 328" width="25.882" height="16.495" transform="translate(55.04 9.094)" fill="#f0f0f0"/>
      <rect id="Rectangle_329" data-name="Rectangle 329" width="26.722" height="1.29" transform="translate(54.195 7.804)" fill="#f0f0f0"/>
      <rect id="Rectangle_330" data-name="Rectangle 330" width="7.934" height="1.29" transform="translate(88.856 9.09) rotate(180)" fill="#ebebeb"/>
      <rect id="Rectangle_331" data-name="Rectangle 331" width="7.243" height="16.495" transform="translate(88.165 25.585) rotate(180)" fill="#ebebeb"/>
      <rect id="Rectangle_332" data-name="Rectangle 332" width="33.125" height="0.752" transform="translate(55.04 9.094)" fill="#e0e0e0" opacity="0.7"/>
    </g>
    <g id="freepik--Shadow--inject-143" transform="translate(26.035 217.363)">
      <ellipse id="freepik--path--inject-143" cx="89.965" cy="5.252" rx="89.965" ry="5.252" fill="#f5f5f5"/>
    </g>
    <g id="freepik--Lamp--inject-143" transform="translate(104.769 87.694)">
      <path id="Path_401" data-name="Path 401" d="M291.923,204.208a.158.158,0,0,1-.107-.037.172.172,0,0,1-.028-.241c3.313-4.227,3.007-9.02,2.622-15.085-.135-2.116-.274-4.306-.288-6.719-.023-4.176,1.633-10.927,3.248-17.465,2-8.185,4.074-16.653,2.32-18.509-3.113-3.313-13.683.543-19.312,4.547-4.612,3.285-8.255,2.645-14.871,1.476-1.731-.306-3.712-.65-5.93-.965-8.816-1.248-9.772.135-11.1,2.046-.255.367-.524.747-.858,1.141a.172.172,0,0,1-.246,0,.181.181,0,0,1,0-.246,12.653,12.653,0,0,0,.835-1.114c1.392-2.014,2.408-3.471,11.438-2.195,2.236.32,4.2.664,5.939.97,6.524,1.151,10.115,1.786,14.611-1.415,5.86-4.176,16.477-8,19.766-4.5,1.856,1.991-.13,10.171-2.25,18.829-1.591,6.5-3.248,13.252-3.22,17.381,0,2.4.153,4.584.288,6.7.39,6.143.7,10.992-2.7,15.312a.181.181,0,0,1-.162.093Z" transform="translate(-237.336 -135.681)" fill="#263238"/>
      <circle id="Ellipse_68" data-name="Ellipse 68" cx="4.171" cy="4.171" r="4.171" transform="translate(1.955 28.296) rotate(-45)" fill="#fff"/>
      <circle id="Ellipse_69" data-name="Ellipse 69" cx="4.171" cy="4.171" r="4.171" transform="translate(1.955 28.296) rotate(-45)" fill="#26a69a" opacity="0.3"/>
      <path id="Path_402" data-name="Path 402" d="M236.4,160.349A5.447,5.447,0,0,0,225.89,163.1l2.209,11.057,11.809-3.081Z" transform="translate(-225.795 -142.175)" fill="#26a69a"/>
      <path id="Path_403" data-name="Path 403" d="M245.85,163.095a3.09,3.09,0,1,1-.905-2.19A3.095,3.095,0,0,1,245.85,163.095Z" transform="translate(-233.227 -143.974)" fill="#263238"/>
      <path id="Path_404" data-name="Path 404" d="M243.178,166.237a2.724,2.724,0,1,1,1.929-.8A2.728,2.728,0,0,1,243.178,166.237Zm0-4.988a2.264,2.264,0,1,0,2.264,2.264A2.264,2.264,0,0,0,243.178,161.249Z" transform="translate(-233.65 -144.392)" fill="#26a69a"/>
      <path id="Path_405" data-name="Path 405" d="M245.788,155.4a.464.464,0,0,1-.074-.923l63.359-9.693a.469.469,0,0,1,.139.928l-63.355,9.679Z" transform="translate(-236.26 -135.815)" fill="#263238"/>
      <path id="Path_406" data-name="Path 406" d="M326.339,254.1h-.065a.464.464,0,0,1-.4-.524L343.131,125.86a.464.464,0,0,1,.919.125L326.8,253.692A.464.464,0,0,1,326.339,254.1Z" transform="translate(-279.435 -125.461)" fill="#263238"/>
      <path id="Path_407" data-name="Path 407" d="M360.708,146.954a1.884,1.884,0,1,1-1.884-1.884A1.884,1.884,0,0,1,360.708,146.954Z" transform="translate(-296.089 -135.972)" fill="#263238"/>
    </g>
    <g id="freepik--Sofa--inject-143" transform="translate(43.683 146.844)">
      <rect id="Rectangle_333" data-name="Rectangle 333" width="116.817" height="24.147" transform="translate(130.725 72.495) rotate(180)" fill="#26a69a"/>
      <rect id="Rectangle_334" data-name="Rectangle 334" width="116.817" height="24.147" transform="translate(130.725 72.495) rotate(180)" fill="#fff" opacity="0.1"/>
      <path id="Path_408" data-name="Path 408" d="M121.975,290.672H238.791l1.772-18.147A17.85,17.85,0,0,0,222.8,252.94H137.969A17.85,17.85,0,0,0,120.2,272.525Z" transform="translate(-108.066 -252.94)" fill="#26a69a"/>
      <path id="Path_409" data-name="Path 409" d="M121.975,290.672H238.791l1.772-18.147A17.85,17.85,0,0,0,222.8,252.94H137.969A17.85,17.85,0,0,0,120.2,272.525Z" transform="translate(-108.066 -252.94)" opacity="0.3"/>
      <rect id="Rectangle_335" data-name="Rectangle 335" width="116.817" height="1.369" transform="translate(130.725 49.718) rotate(180)" fill="#26a69a" opacity="0.9"/>
      <rect id="Rectangle_336" data-name="Rectangle 336" width="116.817" height="12.746" transform="translate(130.725 48.349) rotate(180)" fill="#26a69a"/>
      <rect id="Rectangle_337" data-name="Rectangle 337" width="116.817" height="12.746" transform="translate(130.725 48.349) rotate(180)" opacity="0.2"/>
      <path id="Path_410" data-name="Path 410" d="M365.679,286.77h0a11.878,11.878,0,0,0-11.855,12.607l2.32,38a4.394,4.394,0,0,0,4.389,4.13H370.8a4.4,4.4,0,0,0,4.394-4.129l2.32-38a11.878,11.878,0,0,0-11.832-12.607Z" transform="translate(-233.321 -271.073)" fill="#26a69a"/>
      <circle id="Ellipse_70" data-name="Ellipse 70" cx="9.373" cy="9.373" r="9.373" transform="translate(120.093 33.266) rotate(-67.2)" fill="#fff" opacity="0.1"/>
      <path id="Path_411" data-name="Path 411" d="M373.973,408.86h4.315l.673-4.13H373.3Z" transform="translate(-243.772 -334.299)" fill="#263238"/>
      <path id="Path_412" data-name="Path 412" d="M114.683,408.86H119l.673-4.13H114.01Z" transform="translate(-104.793 -334.299)" fill="#263238"/>
      <path id="Path_413" data-name="Path 413" d="M106.879,286.77h0a11.878,11.878,0,0,0-11.855,12.607l2.32,38a4.4,4.4,0,0,0,4.394,4.13H112a4.394,4.394,0,0,0,4.389-4.13l2.32-38a11.878,11.878,0,0,0-11.832-12.607Z" transform="translate(-94.604 -271.073)" fill="#26a69a"/>
      <circle id="Ellipse_71" data-name="Ellipse 71" cx="9.373" cy="9.373" r="9.373" transform="translate(0 33.26) rotate(-67.2)" fill="#fff" opacity="0.1"/>
    </g>
    <g id="freepik--Character--inject-143" transform="translate(56.415 108.61)">
      <path id="Path_414" data-name="Path 414" d="M175.658,227.94c.626.39,1.36.826,2.046,1.234s1.392.826,2.116,1.225c1.415.807,2.849,1.568,4.287,2.32s2.891,1.392,4.348,1.991a31.9,31.9,0,0,0,4.324,1.438l-.575-.056c1.308.046,2.807.032,4.273,0l4.454-.116c2.984-.074,5.995-.153,9-.125l.418,3.355c-1.476.385-2.956.71-4.44,1.021s-2.97.594-4.464.858-3,.506-4.519.705-3.03.394-4.724.464h-.19l-.39-.065A32.619,32.619,0,0,1,186.2,240.8a52.73,52.73,0,0,1-5-2c-1.624-.733-3.192-1.545-4.737-2.394-.766-.427-1.531-.863-2.283-1.322s-1.48-.928-2.274-1.448Z" transform="translate(-148.554 -201.306)" fill="#ffc3bd"/>
      <path id="Path_415" data-name="Path 415" d="M166.9,227.93c-.738-2.988,3.332-3.2,15.061,2.232l-2.58,9.41S169.144,237.052,166.9,227.93Z" transform="translate(-145.831 -200.182)" fill="#26a69a"/>
      <path id="Path_416" data-name="Path 416" d="M174,236.35a3.786,3.786,0,0,0-2.724,1.675c3.053,4.51,8.129,6.445,9.879,7h.06l.13.033C179.553,238.916,176.718,236.4,174,236.35Z" transform="translate(-148.221 -205.814)" opacity="0.2"/>
      <path id="Path_417" data-name="Path 417" d="M276.577,310.033l4.816-.761-1.267-12.282-4.816.761Z" transform="translate(-203.981 -238.317)" fill="#ffc3bd"/>
      <path id="Path_418" data-name="Path 418" d="M280.934,317.5l-5.744.083a.418.418,0,0,0-.394.376l-.738,4.784a.8.8,0,0,0,.752.928c1.893-.065,3.9-.209,6.287-.241,1.466-.023,5.081.084,7.108.056s2.19-2.264,1.35-2.455c-3.763-.849-6.575-2.056-7.823-3.248a1.132,1.132,0,0,0-.8-.283Z" transform="translate(-203.304 -249.309)" fill="#263238"/>
      <path id="Path_419" data-name="Path 419" d="M185.486,273.642s17.632-20.314,26.861-18.356c10.584,2.25,14.8,24.745,14.8,24.745l-8.194.928s-4.283-10.06-9.169-13.744c-10.013,16.17-35.631,28.123-38.781,11.438C175.208,276.96,185.486,273.642,185.486,273.642Z" transform="translate(-148.071 -215.892)" fill="#263238"/>
      <path id="Path_420" data-name="Path 420" d="M281.012,304.83l-10.222,2-.77-3.373,10.663-2.306Z" transform="translate(-201.146 -240.547)" fill="#263238"/>
      <path id="Path_421" data-name="Path 421" d="M251.159,244.316l3.944-.756,1.647,4.7s-3.944,1.308-5.86-1.174Z" transform="translate(-190.892 -209.678)" fill="#ffc3bd"/>
      <path id="Path_422" data-name="Path 422" d="M264.522,244.507l1.016,3.406-3.921.348-1.647-4.7Z" transform="translate(-195.759 -209.678)" fill="#ffc3bd"/>
      <path id="Path_423" data-name="Path 423" d="M142.29,264s-7.684-11.322-11.456-29.566a7.215,7.215,0,0,1,6.7-8.64c3.712-.195,7.628-.246,10.811-.232a7.178,7.178,0,0,1,6.876,5.2c1.731,6.069,2.821,14.017,9.6,25.3a3.111,3.111,0,0,1-2.32,4.505Z" transform="translate(-126.465 -200.028)" fill="#26a69a"/>
      <path id="Path_424" data-name="Path 424" d="M130.741,235.321c2.594-3.619,4.909-4.13,5.568-3.925,5.995,1.893-.464,18.411-1.438,20.254a99.466,99.466,0,0,1-4.032-14.161A7.011,7.011,0,0,1,130.741,235.321Z" transform="translate(-126.469 -203.138)" opacity="0.2"/>
      <path id="Path_425" data-name="Path 425" d="M195.857,308.3c-.162.589.3,2.506,3.09,4.677a38.59,38.59,0,0,0,11.744-5.828C205.035,305.557,196.994,304.2,195.857,308.3Z" transform="translate(-161.379 -242.926)" opacity="0.2"/>
      <path id="Path_426" data-name="Path 426" d="M145.33,201c1.206,3.285,2.752,9.22.882,11.6a11.707,11.707,0,0,0,8.352,2.844c3.851-.125,3.067-1.666,1.8-3.03-3.744-.636-4.13-3.791-3.953-6.417Z" transform="translate(-134.312 -186.866)" fill="#ffc3bd"/>
      <path id="Path_427" data-name="Path 427" d="M151.463,205.37l4.176,2.951a11.26,11.26,0,0,0,0,1.856,3.786,3.786,0,0,1-4.139-2.292A8.533,8.533,0,0,1,151.463,205.37Z" transform="translate(-137.559 -189.209)" opacity="0.2"/>
      <path id="Path_428" data-name="Path 428" d="M161.475,188.93c.752,1.438,2.172,2.176,3.174,1.656s1.2-2.111.464-3.55-2.172-2.176-3.174-1.652S160.714,187.5,161.475,188.93Z" transform="translate(-142.723 -178.406)" fill="#26a69a"/>
      <path id="Path_429" data-name="Path 429" d="M159.32,189.754c.8,1.527,2.32,2.32,3.373,1.759s1.276-2.246.464-3.772-2.32-2.32-3.373-1.759S158.522,188.213,159.32,189.754Z" transform="translate(-141.551 -178.72)" fill="#fff"/>
      <path id="Path_430" data-name="Path 430" d="M156.574,183.056l1.907-.557a7.986,7.986,0,0,1-1.174-3.8c.111-1.7.436-3.011-2.877-2.937S149.275,179.121,156.574,183.056Z" transform="translate(-137.631 -173.339)" fill="#263238"/>
      <path id="Path_431" data-name="Path 431" d="M138.623,187.445c2.32,3.837,3.471,6.194,6.58,7.28a5.786,5.786,0,0,0,7.642-6.872c-.984-3.949-4.6-9.563-9.4-9.312A5.789,5.789,0,0,0,138.623,187.445Z" transform="translate(-130.236 -174.824)" fill="#ffc3bd"/>
      <path id="Path_432" data-name="Path 432" d="M134.033,179.541c3.628-.575,9.855-2.756,9.053-7.085-.543-2.909-5.076-2.014-6.032-.543a18.44,18.44,0,0,1-5.526,4.951C129.319,178.1,128.618,180.4,134.033,179.541Z" transform="translate(-126.031 -170.539)" fill="#263238"/>
      <path id="Path_433" data-name="Path 433" d="M136.173,196.061l1.824-.789a7.979,7.979,0,0,1-1.643-3.619c-.1-1.7.051-3.044-3.22-2.552S128.442,193.1,136.173,196.061Z" transform="translate(-126.366 -180.433)" fill="#263238"/>
      <path id="Path_434" data-name="Path 434" d="M138.154,189.947a.218.218,0,0,1-.162-.07,8.552,8.552,0,0,1-2.881-6.032,3.921,3.921,0,0,1,.812-2.645.231.231,0,1,1,.329.325,3.41,3.41,0,0,0-.677,2.32,8.082,8.082,0,0,0,2.742,5.693.232.232,0,0,1,0,.329.218.218,0,0,1-.162.079Z" transform="translate(-128.834 -176.217)" fill="#26a69a"/>
      <path id="Path_435" data-name="Path 435" d="M138.852,204.632a4.042,4.042,0,0,0,2.9.65c1.327-.223,1.392-1.508.464-2.431-.8-.835-2.455-1.717-3.536-1.021A1.638,1.638,0,0,0,138.852,204.632Z" transform="translate(-130.363 -187.176)" fill="#ffc3bd"/>
      <path id="Path_436" data-name="Path 436" d="M141.589,200.22c1.086,1.341,1.211,3.039.278,3.8s-2.566.283-3.652-1.058-1.211-3.035-.278-3.791S140.508,198.9,141.589,200.22Z" transform="translate(-130.015 -185.692)" fill="#fff"/>
      <path id="Path_437" data-name="Path 437" d="M140.044,201.812c1.021,1.257,1.137,2.854.26,3.564s-2.413.269-3.434-.993-1.137-2.854-.26-3.564S139.023,200.549,140.044,201.812Z" transform="translate(-129.323 -186.587)" fill="#26a69a"/>
      <path id="Path_438" data-name="Path 438" d="M150.678,193.838h-.348a1.81,1.81,0,0,1,.64-1.141.784.784,0,0,1,.668-.2.7.7,0,0,1,.464.38l-.311.162a.357.357,0,0,0-.232-.2.464.464,0,0,0-.38.135A1.522,1.522,0,0,0,150.678,193.838Z" transform="translate(-136.992 -182.302)" fill="#263238"/>
      <path id="Path_439" data-name="Path 439" d="M159.743,189.032a.58.58,0,0,1,0-.506.756.756,0,0,1,.515-.367,1.049,1.049,0,0,1,1,.264l-.241.251a.687.687,0,0,0-.673-.176.413.413,0,0,0-.292.186.255.255,0,0,0,0,.218Z" transform="translate(-142.006 -179.965)" fill="#263238"/>
      <path id="Path_440" data-name="Path 440" d="M158.25,192.11a13.817,13.817,0,0,0,3.016,2.028c-.306.8-1.424,1.016-1.424,1.016Z" transform="translate(-141.237 -182.101)" fill="#ed847e"/>
      <path id="Path_441" data-name="Path 441" d="M156.816,202.909a3.206,3.206,0,0,1-2.417-.195.1.1,0,1,1,.111-.176,3.076,3.076,0,0,0,2.654,0,.111.111,0,0,1,.144.051.1.1,0,0,1-.046.139,3.313,3.313,0,0,1-.445.181Z" transform="translate(-139.145 -187.68)" fill="#263238"/>
      <path id="Path_442" data-name="Path 442" d="M146.943,191.586a.3.3,0,0,1-.111,0,.213.213,0,0,1-.176-.251,2.009,2.009,0,0,1,1.169-1.5.227.227,0,0,1,.288.116.2.2,0,0,1-.116.274h0a1.605,1.605,0,0,0-.928,1.2A.209.209,0,0,1,146.943,191.586Z" transform="translate(-135.021 -180.872)" fill="#263238"/>
      <path id="Path_443" data-name="Path 443" d="M160.618,185.511a.227.227,0,0,1-.2,0,1.786,1.786,0,0,0-1.573-.074.223.223,0,0,1-.3-.083.2.2,0,0,1,.074-.283,2.241,2.241,0,0,1,1.986.07.2.2,0,0,1,.1.283A.19.19,0,0,1,160.618,185.511Z" transform="translate(-141.378 -178.222)" fill="#263238"/>
      <path id="Path_444" data-name="Path 444" d="M268.769,397.513l4.12-2.506L267.07,383.96l-4.12,2.506Z" transform="translate(-197.356 -284.933)" fill="#ffc3bd"/>
      <path id="Path_445" data-name="Path 445" d="M275,400.1l-4.8,2.4a.39.39,0,0,0-.158.492l1.536,4.566a.793.793,0,0,0,1.039.548c1.527-.8,2.594-1.476,4.538-2.445,1.2-.6,4.886-2.255,6.538-3.081s.789-2.886,0-2.724c-3.471.724-6.361.775-7.888.218A1.007,1.007,0,0,0,275,400.1Z" transform="translate(-201.14 -293.445)" fill="#263238"/>
      <path id="Path_446" data-name="Path 446" d="M173.563,301.87s8.964,1.234,22.021,9.8c9.043,5.939,16.936,30.313,16.936,30.313l-7.071,4.83s-8.988-19.567-16.514-26.791c-24.731-5.888-32.016,1.81-33.246-15.122C160.061,303.689,173.563,301.87,173.563,301.87Z" transform="translate(-139.865 -240.933)" fill="#263238"/>
      <path id="Path_447" data-name="Path 447" d="M269.17,386.652l-9.312,4.672-1.647-3.044,9.656-5.081Z" transform="translate(-194.816 -284.525)" fill="#263238"/>
      <path id="Path_448" data-name="Path 448" d="M132.134,241.332c-.9,2.928-1.856,5.948-2.649,8.9-.408,1.48-.78,2.965-1.1,4.408-.148.719-.283,1.434-.376,2.107a11.21,11.21,0,0,0-.144,1.74v.167h0a.439.439,0,0,0-.07-.153c-.028-.051-.1-.176-.139-.237-.167-.223-.2-.213-.2-.2a1.306,1.306,0,0,0,.167.148,10.928,10.928,0,0,0,1.619.928c1.285.622,2.71,1.22,4.148,1.777,2.881,1.132,5.879,2.181,8.816,3.29l-.742,3.3a77.654,77.654,0,0,1-9.628-1.619,44.2,44.2,0,0,1-4.853-1.392,15.812,15.812,0,0,1-2.645-1.2,8.394,8.394,0,0,1-.8-.552,4.993,4.993,0,0,1-1.016-1.072,4.345,4.345,0,0,1-.288-.492c-.046-.1-.093-.2-.13-.292l-.06-.158c-.084-.218-.135-.4-.19-.594a7.951,7.951,0,0,1-.181-.988,15.207,15.207,0,0,1-.037-3.03c.07-.928.181-1.768.306-2.612.255-1.694.6-3.313.974-4.918a95.474,95.474,0,0,1,2.756-9.419Z" transform="translate(-121.584 -207.325)" fill="#ffc3bd"/>
      <path id="Path_449" data-name="Path 449" d="M132.425,226.428c-.928.251-5.136.882-8.125,11.168l10.111,3.944S141.412,224.025,132.425,226.428Z" transform="translate(-123.04 -200.374)" fill="#26a69a"/>
      <path id="Path_450" data-name="Path 450" d="M162.538,292.747l3.55,1.768-3.248,3.921s-3.712-2.385-3.035-4.4l1.346-1.123A1.285,1.285,0,0,1,162.538,292.747Z" transform="translate(-142.026 -235.972)" fill="#ffc3bd"/>
      <path id="Path_451" data-name="Path 451" d="M172.873,300.278l-3.545,2.9-2.928-2.543,3.267-3.921Z" transform="translate(-145.606 -238.167)" fill="#ffc3bd"/>
    </g>
  </g>
</svg>
