<svg xmlns="http://www.w3.org/2000/svg" width="36.006" height="36.006" viewBox="0 0 36.006 36.006">
  <g id="senario-menu" transform="translate(-36.5 -402.5)">
    <g id="Rectangle_155" data-name="Rectangle 155" transform="translate(36.5 402.5)" fill="none" stroke="#fff" stroke-width="2">
      <rect width="36.006" height="36.006" rx="8" stroke="none"/>
      <rect x="1" y="1" width="34.006" height="34.006" rx="7" fill="none"/>
    </g>
    <g id="Ellipse_54" data-name="Ellipse 54" transform="translate(43 409.006)" fill="none" stroke="#fff" stroke-width="1">
      <circle cx="2.5" cy="2.5" r="2.5" stroke="none"/>
      <circle cx="2.5" cy="2.5" r="2" fill="none"/>
    </g>
    <g id="Ellipse_57" data-name="Ellipse 57" transform="translate(52 409.006)" fill="none" stroke="#fff" stroke-width="1">
      <circle cx="2.5" cy="2.5" r="2.5" stroke="none"/>
      <circle cx="2.5" cy="2.5" r="2" fill="none"/>
    </g>
    <g id="Ellipse_58" data-name="Ellipse 58" transform="translate(61 409.006)" fill="none" stroke="#fff" stroke-width="1">
      <circle cx="2.5" cy="2.5" r="2.5" stroke="none"/>
      <circle cx="2.5" cy="2.5" r="2" fill="none"/>
    </g>
    <g id="Ellipse_55" data-name="Ellipse 55" transform="translate(43 418.006)" fill="none" stroke="#fff" stroke-width="1">
      <circle cx="2.5" cy="2.5" r="2.5" stroke="none"/>
      <circle cx="2.5" cy="2.5" r="2" fill="none"/>
    </g>
    <g id="Ellipse_56" data-name="Ellipse 56" transform="translate(43 427.006)" fill="none" stroke="#fff" stroke-width="1">
      <circle cx="2.5" cy="2.5" r="2.5" stroke="none"/>
      <circle cx="2.5" cy="2.5" r="2" fill="none"/>
    </g>
    <g id="future" transform="translate(49.361 415.362)">
      <path id="Path_146" data-name="Path 146" d="M12.353,5.99a.373.373,0,0,0-.373.373A5.615,5.615,0,1,1,9.047,1.427l-.466.466a.373.373,0,0,0,.264.636h1.784A.373.373,0,0,0,11,2.157V.373a.373.373,0,0,0-.636-.264L9.593.88a6.363,6.363,0,0,0-7.73,9.982,6.363,6.363,0,0,0,10.863-4.5A.373.373,0,0,0,12.353,5.99Z" transform="translate(8.999 17.998) rotate(-135)" fill="#fff"/>
      <path id="Path_147" data-name="Path 147" d="M244.7,147.8H242v-2.7a.5.5,0,0,0-1,0v3.2a.5.5,0,0,0,.5.5h3.2a.5.5,0,1,0,0-1Z" transform="translate(-232.398 -138.707)" fill="#fff"/>
    </g>
  </g>
</svg>
