<svg xmlns="http://www.w3.org/2000/svg" width="25.895" height="25.895" viewBox="0 0 25.895 25.895">
  <path id="socket" d="M8.219,8.384a6.575,6.575,0,1,0,9.427-.031l1.429-1.431A8.6,8.6,0,1,1,6.79,6.953Zm8.17-3.066a5.07,5.07,0,0,0-3.441-1.474,5.2,5.2,0,0,0-3.5,1.474l-.716.715,1.43,1.431.716-.715a3.151,3.151,0,0,1,2.072-.882,3.023,3.023,0,0,1,2.012.882l.716.715L17.1,6.032Zm-8.8-.586L8.3,4.015a6.368,6.368,0,0,1,9.252,0l.713.717L19.7,3.305l-.713-.717a8.39,8.39,0,0,0-12.121,0l-.713.717Zm4.295,4.321A1.012,1.012,0,1,0,12.9,8.041,1.011,1.011,0,0,0,11.885,9.053Zm3.085,3.894a1.012,1.012,0,1,0,1.012-1.012A1.011,1.011,0,0,0,14.97,12.947ZM22.86,0H19.071a11.248,11.248,0,0,1,1.354,1.162l.857.861H22.86a1.013,1.013,0,0,1,1.012,1.012V22.86a1.013,1.013,0,0,1-1.012,1.012H3.034A1.013,1.013,0,0,1,2.023,22.86V3.035A1.013,1.013,0,0,1,3.034,2.023H4.578l.856-.861A11.244,11.244,0,0,1,6.789,0H3.034A3.038,3.038,0,0,0,0,3.035V22.86a3.038,3.038,0,0,0,3.035,3.035H22.86a3.038,3.038,0,0,0,3.035-3.035V3.035A3.038,3.038,0,0,0,22.86,0ZM9.913,11.936a1.012,1.012,0,1,0,1.012,1.012A1.011,1.011,0,0,0,9.913,11.936Z" fill="#26a69a"/>
</svg>
