<svg xmlns="http://www.w3.org/2000/svg" width="70" height="70" viewBox="0 0 70 70">
  <path id="Icon_awesome-temperature-high" data-name="Icon awesome-temperature-high" d="M56.875,0A13.125,13.125,0,1,0,70,13.125,13.146,13.146,0,0,0,56.875,0Zm0,17.5a4.375,4.375,0,1,1,4.375-4.375A4.37,4.37,0,0,1,56.875,17.5ZM35,15.312a15.313,15.313,0,0,0-30.625,0V38.076a19.652,19.652,0,1,0,35,12.236A19.511,19.511,0,0,0,35,38.076ZM19.688,61.25a10.919,10.919,0,0,1-6.562-19.66V15.312a6.563,6.563,0,0,1,13.125,0V41.59a10.919,10.919,0,0,1-6.562,19.66Zm2.188-17.1V15.312a2.188,2.188,0,0,0-4.375,0V44.146a6.563,6.563,0,1,0,4.375,0Z" fill="#fff" opacity="0.3"/>
</svg>
