<svg xmlns="http://www.w3.org/2000/svg" width="20" height="20.001" viewBox="0 0 20 20.001">
  <path id="update" d="M21.876,9.787H14.342l3.045-3.134A7.822,7.822,0,0,0,6.408,6.542a7.639,7.639,0,0,0,0,10.879,7.8,7.8,0,0,0,10.979,0,7.237,7.237,0,0,0,2.267-5.434h2.222a10.379,10.379,0,0,1-2.934,6.989,10.061,10.061,0,0,1-14.134,0A9.823,9.823,0,0,1,4.786,5,9.987,9.987,0,0,1,18.842,5l3.034-3.122ZM12.431,7.431v4.723l3.889,2.311-.8,1.345-4.756-2.822V7.431Z" transform="translate(-1.876 -1.875)" fill="#fff"/>
</svg>
