<svg xmlns="http://www.w3.org/2000/svg" width="25.107" height="26.199" viewBox="0 0 25.107 26.199">
  <path id="household" d="M9,19.462a3.826,3.826,0,0,0,2.729,3.66v1.253a5.448,5.448,0,0,0,8.733,4.356v1.405a2.183,2.183,0,1,0,2.183,0V28.731a5.449,5.449,0,0,0,8.733-4.356V23.122a3.821,3.821,0,1,0-2.183,0v1.253a3.275,3.275,0,0,1-6.55,0V14.506a3.823,3.823,0,0,0,3.275-3.777V9.092A1.092,1.092,0,0,0,24.829,8h-6.55a1.092,1.092,0,0,0-1.092,1.092v1.637a3.823,3.823,0,0,0,3.275,3.777v9.868a3.275,3.275,0,1,1-6.55,0V23.122A3.82,3.82,0,1,0,9,19.462Zm19.649,0A1.637,1.637,0,1,1,30.287,21.1,1.639,1.639,0,0,1,28.649,19.462ZM19.37,10.729v-.546h4.367v.546A1.639,1.639,0,0,1,22.1,12.366H21.008A1.639,1.639,0,0,1,19.37,10.729Zm-4.912,8.733a1.637,1.637,0,1,1-1.637-1.637A1.639,1.639,0,0,1,14.458,19.462Z" transform="translate(-9 -8)" fill="#26a69a"/>
</svg>
