<svg xmlns="http://www.w3.org/2000/svg" width="32.44" height="42.679" viewBox="0 0 32.44 42.679">
  <g id="lamp3" style="isolation: isolate">
    <g id="Group_54" data-name="Group 54" transform="translate(0)">
      <g id="Group_53" data-name="Group 53" transform="translate(0)">
        <path id="Path_20" data-name="Path 20" d="M65.7,17.082a15.378,15.378,0,0,0-8.029-4.419v-1.94a1.468,1.468,0,0,0-.485-1.132,1.8,1.8,0,0,0-1.132-.485H55.19l-.054-8.3a.808.808,0,1,0-1.617,0l.054,8.3h-.862a1.468,1.468,0,0,0-1.132.485,1.8,1.8,0,0,0-.485,1.132V12.61a16.612,16.612,0,0,0-8.353,4.473A16.158,16.158,0,0,0,38,28.614a.794.794,0,0,0,.808.808H47.43a6.971,6.971,0,0,0,1.94,4.042,6.9,6.9,0,0,0,9.7,0,6.971,6.971,0,0,0,1.94-4.042h8.622a.794.794,0,0,0,.808-.808A16.48,16.48,0,0,0,65.7,17.082Zm-13.041-6.3H56v1.617h-.377a11.264,11.264,0,0,0-1.347-.054,10.356,10.356,0,0,0-1.293,0,.683.683,0,0,0-.323.054Zm5.281,21.5a5.2,5.2,0,0,1-7.329,0,5.026,5.026,0,0,1-1.455-2.856H59.447A5.278,5.278,0,0,1,57.938,32.279Zm2.371-4.527H39.671A14.564,14.564,0,0,1,52.5,14.119c.108,0,.269-.054.377-.054a11.264,11.264,0,0,1,1.347-.054,12.18,12.18,0,0,1,1.4.054c.108,0,.269.054.377.054A14.564,14.564,0,0,1,68.824,27.752Z" transform="translate(-38)" fill="#26a69a"/>
      </g>
    </g>
    <g id="Group_56" data-name="Group 56" transform="translate(15.466 36.59)">
      <g id="Group_55" data-name="Group 55">
        <path id="Path_21" data-name="Path 21" d="M153.608,271.6a.794.794,0,0,0-.808.808v4.473a.808.808,0,0,0,1.617,0v-4.473A.764.764,0,0,0,153.608,271.6Z" transform="translate(-152.8 -271.6)" fill="#26a69a"/>
      </g>
    </g>
    <g id="Group_58" data-name="Group 58" transform="translate(19.842 35.361)">
      <g id="Group_57" data-name="Group 57" transform="translate(0)">
        <path id="Path_22" data-name="Path 22" d="M189.1,266.783l-2.263-3.88a.832.832,0,0,0-1.455.808l2.263,3.88a.832.832,0,1,0,1.455-.808Z" transform="translate(-185.283 -262.483)" fill="#26a69a"/>
      </g>
    </g>
    <g id="Group_64" data-name="Group 64" transform="translate(8.784 35.361)">
      <g id="Group_63" data-name="Group 63" transform="translate(0)">
        <path id="Path_25" data-name="Path 25" d="M106.7,262.58a.867.867,0,0,0-1.132.323l-2.263,3.88a.832.832,0,1,0,1.455.808l2.263-3.88A.818.818,0,0,0,106.7,262.58Z" transform="translate(-103.2 -262.483)" fill="#26a69a"/>
      </g>
    </g>
  </g>
</svg>
