<svg xmlns="http://www.w3.org/2000/svg" width="31" height="26.774" viewBox="0 0 31 26.774">
  <g id="recordvoice-menu" transform="translate(-0.833 -1.667)">
    <path id="Path_65" data-name="Path 65" d="M15.44,9.8A5.637,5.637,0,1,1,9.8,4.167,5.637,5.637,0,0,1,15.44,9.8Z" transform="translate(2.303 1.728)" fill="#fff"/>
    <path id="Path_66" data-name="Path 66" d="M12.107,19.986C8.344,19.986.833,21.874.833,25.623v2.818H23.38V25.623c0-3.748-7.511-5.637-11.273-5.637ZM23.042,6.4,20.674,8.783a4.675,4.675,0,0,1,0,5.482l2.367,2.382A7.211,7.211,0,0,0,23.042,6.4Zm4.664-4.735-2.3,2.3a11.243,11.243,0,0,1,0,15.134l2.3,2.3a13.851,13.851,0,0,0,0-19.728Z" transform="translate(0)" fill="#fff"/>
  </g>
</svg>
