<svg xmlns="http://www.w3.org/2000/svg" width="31" height="31.002" viewBox="0 0 31 31.002">
  <path id="update-menu" d="M32.876,14.138H21.2l4.719-4.857A12.123,12.123,0,0,0,8.9,9.109a11.841,11.841,0,0,0,0,16.862,12.09,12.09,0,0,0,17.017,0,11.218,11.218,0,0,0,3.514-8.422h3.445a16.088,16.088,0,0,1-4.547,10.834,15.594,15.594,0,0,1-21.908,0A15.225,15.225,0,0,1,6.386,6.715a15.479,15.479,0,0,1,21.788,0l4.7-4.84Zm-14.64-3.651v7.32l6.028,3.582-1.24,2.084L15.652,19.1V10.487Z" transform="translate(-1.876 -1.875)" fill="#fff"/>
</svg>
