<svg id="armchair" xmlns="http://www.w3.org/2000/svg" width="30" height="30" viewBox="0 0 30 30">
  <g id="Group_138" data-name="Group 138" transform="translate(0)">
    <path id="Path_133" data-name="Path 133" d="M29.876,11.466a4.18,4.18,0,0,0-3.149-3.039c-.125-.026-.25-.022-.375-.037A10.767,10.767,0,0,0,15.835,0H14.168A10.769,10.769,0,0,0,3.65,8.39,4.109,4.109,0,0,0,0,12.5a4.171,4.171,0,0,0,1.667,3.316v7.517A3.322,3.322,0,0,0,3.334,26.2v1.3a2.5,2.5,0,0,0,5,0v-.833H21.669V27.5a2.5,2.5,0,0,0,5,0V26.2a3.322,3.322,0,0,0,1.667-2.87V15.817A4.167,4.167,0,0,0,29.876,11.466Zm-15.71-9.8h1.667a9.106,9.106,0,0,1,8.835,6.853,4.1,4.1,0,0,0-3,3.981v4.167H8.333V12.678a4.33,4.33,0,0,0-3-4.164A9.107,9.107,0,0,1,14.167,1.667Zm9.167,17.5A.834.834,0,0,1,22.5,20H7.5a.833.833,0,0,1,0-1.667h15A.834.834,0,0,1,23.333,19.167ZM6.667,27.5A.833.833,0,1,1,5,27.5v-.833H6.667ZM25,27.5a.833.833,0,0,1-1.667,0v-.833H25Zm2.081-12.849a.833.833,0,0,0-.414.72v7.962A1.669,1.669,0,0,1,25,25H5a1.669,1.669,0,0,1-1.667-1.667V15.371a.835.835,0,0,0-.414-.72A2.472,2.472,0,0,1,1.667,12.5a2.5,2.5,0,0,1,2.926-2.465,2.621,2.621,0,0,1,2.074,2.643V16.82A2.494,2.494,0,0,0,7.5,21.667h15a2.494,2.494,0,0,0,.833-4.846V12.5a2.5,2.5,0,1,1,3.747,2.151Z" transform="translate(0)" fill="#fff"/>
  </g>
</svg>
