<svg xmlns="http://www.w3.org/2000/svg" width="30" height="26" viewBox="0 0 30 26">
  <g id="bed" transform="translate(0 -32)">
    <g id="Group_142" data-name="Group 142" transform="translate(0 32)">
      <g id="Group_141" data-name="Group 141" transform="translate(0 0)">
        <path id="Path_138" data-name="Path 138" d="M29.5,47H29V45.5a2.5,2.5,0,0,0-1.5-2.288V35.5a.5.5,0,0,0-.3-.458A1.979,1.979,0,0,0,27.5,34a2,2,0,0,0-4,0,1.98,1.98,0,0,0,.278,1H6.222A1.98,1.98,0,0,0,6.5,34a2,2,0,0,0-4,0,1.979,1.979,0,0,0,.3,1.042.5.5,0,0,0-.3.458v7.712A2.5,2.5,0,0,0,1,45.5V47H.5a.5.5,0,0,0-.5.5v7a.5.5,0,0,0,.5.5H1v2.5a.5.5,0,0,0,.5.5h2a.5.5,0,0,0,.5-.5V55H26v2.5a.5.5,0,0,0,.5.5h2a.5.5,0,0,0,.5-.5V55h.5a.5.5,0,0,0,.5-.5v-7A.5.5,0,0,0,29.5,47Zm-4-14a1,1,0,1,1-1,1A1,1,0,0,1,25.5,33Zm-21,0a1,1,0,1,1-1,1A1,1,0,0,1,4.5,33Zm-1,3h23v7H24.487A2.474,2.474,0,0,0,25,41.5v-1A2.5,2.5,0,0,0,22.5,38h-4A2.5,2.5,0,0,0,16,40.5v1a2.474,2.474,0,0,0,.513,1.5H13.487A2.474,2.474,0,0,0,14,41.5v-1A2.5,2.5,0,0,0,11.5,38h-4A2.5,2.5,0,0,0,5,40.5v1A2.474,2.474,0,0,0,5.513,43H3.5ZM24,40.5v1A1.5,1.5,0,0,1,22.5,43h-4A1.5,1.5,0,0,1,17,41.5v-1A1.5,1.5,0,0,1,18.5,39h4A1.5,1.5,0,0,1,24,40.5Zm-11,0v1A1.5,1.5,0,0,1,11.5,43h-4A1.5,1.5,0,0,1,6,41.5v-1A1.5,1.5,0,0,1,7.5,39h4A1.5,1.5,0,0,1,13,40.5Zm-11,5A1.5,1.5,0,0,1,3.5,44h23A1.5,1.5,0,0,1,28,45.5V47H2ZM3,57H2V55H3Zm25,0H27V55h1Zm1-3H1V48H29Z" transform="translate(0 -32)" fill="gray"/>
      </g>
    </g>
    <g id="Group_144" data-name="Group 144" transform="translate(2 52)">
      <g id="Group_143" data-name="Group 143" transform="translate(0 0)">
        <path id="Path_139" data-name="Path 139" d="M34.5,352h-2a.5.5,0,0,0,0,1h2a.5.5,0,0,0,0-1Z" transform="translate(-32 -352)" fill="gray"/>
      </g>
    </g>
    <g id="Group_146" data-name="Group 146" transform="translate(6 52)">
      <g id="Group_145" data-name="Group 145" transform="translate(0 0)">
        <path id="Path_140" data-name="Path 140" d="M117.5,352h-21a.5.5,0,0,0,0,1h21a.5.5,0,0,0,0-1Z" transform="translate(-96 -352)" fill="gray"/>
      </g>
    </g>
  </g>
</svg>
