<svg xmlns="http://www.w3.org/2000/svg" width="30" height="30" viewBox="0 0 30 30">
  <g id="chef" transform="translate(0 1)">
    <g id="Group_140" data-name="Group 140" transform="translate(0 -1)">
      <g id="Group_139" data-name="Group 139">
        <path id="Path_134" data-name="Path 134" d="M108.03,214.015a.682.682,0,1,0-1.364,0c0,1.79,1.975,4.249,2.2,4.524a.682.682,0,1,0,1.055-.866C109.19,216.782,108.03,215,108.03,214.015Z" transform="translate(-99.848 -199.697)" fill="gray"/>
        <path id="Path_135" data-name="Path 135" d="M312.064,213.333a.681.681,0,0,0-.682.682c0,.983-1.16,2.766-1.891,3.659a.682.682,0,0,0,1.055.865c.225-.275,2.2-2.733,2.2-4.524A.681.681,0,0,0,312.064,213.333Z" transform="translate(-289.564 -199.697)" fill="gray"/>
        <path id="Path_136" data-name="Path 136" d="M224.682,213.333a.681.681,0,0,0-.682.682v4.091a.682.682,0,1,0,1.364,0v-4.091A.682.682,0,0,0,224.682,213.333Z" transform="translate(-209.682 -199.697)" fill="gray"/>
        <path id="Path_137" data-name="Path 137" d="M22.5,2.727a7.141,7.141,0,0,0-1.293.138,8.155,8.155,0,0,0-12.413,0A7.148,7.148,0,0,0,7.5,2.727,7.5,7.5,0,0,0,4.107,16.911l-.013,10.3A2.783,2.783,0,0,0,6.875,30H23.127a2.785,2.785,0,0,0,2.782-2.782V16.9A7.5,7.5,0,0,0,22.5,2.727Zm2.045,24.491a1.42,1.42,0,0,1-1.418,1.418H6.875a1.419,1.419,0,0,1-1.418-1.42l0-2.671H24.545Zm.422-11.379a.611.611,0,0,0-.1.053.682.682,0,0,0-.313.479.659.659,0,0,0-.007.115v6.7H5.462l.009-6.687a.7.7,0,0,0-.007-.112.683.683,0,0,0-.108-.282.676.676,0,0,0-.2-.2.714.714,0,0,0-.107-.055A6.134,6.134,0,0,1,7.5,4.091c.132,0,.272.016.409.027A8.122,8.122,0,0,0,6.818,8.182a.682.682,0,1,0,1.364,0,6.818,6.818,0,1,1,13.636,0,.682.682,0,1,0,1.364,0,8.123,8.123,0,0,0-1.091-4.064c.137-.011.277-.027.409-.027A6.133,6.133,0,0,1,24.968,15.84Z" transform="translate(0 0)" fill="gray"/>
      </g>
    </g>
  </g>
</svg>
