<svg xmlns="http://www.w3.org/2000/svg" width="90" height="90" viewBox="0 0 90 90">
  <g id="Group_451" data-name="Group 451" transform="translate(-61 -526)">
    <g id="Rectangle_108" data-name="Rectangle 108" transform="translate(61 526)" fill="none" stroke="gray" stroke-width="1">
      <rect width="90" height="90" rx="20" stroke="none"/>
      <rect x="0.5" y="0.5" width="89" height="89" rx="19.5" fill="none"/>
    </g>
    <g id="hang-lamp" transform="translate(81.999 542.432)">
      <path id="Path_185" data-name="Path 185" d="M88.383,58.651h15.434v.592a7.592,7.592,0,1,0,15.185,0v-.591H134.87a.859.859,0,0,0,.858-.86,24.168,24.168,0,0,0-19.547-23.7V31.178a4.566,4.566,0,0,0-3.7-4.479V18.86a.858.858,0,1,0-1.717,0V26.7a4.566,4.566,0,0,0-3.7,4.479v2.91a24.168,24.168,0,0,0-19.547,23.7A.859.859,0,0,0,88.383,58.651Zm28.9.592a5.876,5.876,0,1,1-11.751,0v-.591h11.751Zm-5.658-30.907a2.841,2.841,0,0,1,2.744,2.13h-5.488A2.841,2.841,0,0,1,111.627,28.336Zm-2.838,3.849h5.675v1.637a24.039,24.039,0,0,0-5.675,0Zm2.838,3.188A22.427,22.427,0,0,1,134,56.932H89.258A22.426,22.426,0,0,1,111.627,35.374Z" transform="translate(-87.525 -18)" fill="gray"/>
      <path id="Path_186" data-name="Path 186" d="M250,450.359v5.746a.851.851,0,0,0,1.7,0v-5.746a.851.851,0,0,0-1.7,0Z" transform="translate(-226.75 -399.558)" fill="gray"/>
      <path id="Path_189" data-name="Path 189" d="M146.542,235.876a23.944,23.944,0,0,0-6.517,6.832.851.851,0,1,0,1.439.911,22.248,22.248,0,0,1,6.056-6.348.851.851,0,1,0-.978-1.394Z" transform="translate(-132.389 -212.844)" fill="gray"/>
    </g>
  </g>
</svg>
