<svg xmlns="http://www.w3.org/2000/svg" width="90" height="90" viewBox="0 0 90 90">
  <g id="Group_442" data-name="Group 442" transform="translate(-990 -253)">
    <g id="Rectangle_251" data-name="Rectangle 251" transform="translate(990 253)" fill="#fff" stroke="gray" stroke-width="1">
      <rect width="90" height="90" rx="20" stroke="none"/>
      <rect x="0.5" y="0.5" width="89" height="89" rx="19.5" fill="none"/>
    </g>
    <path id="furniture-and-household" d="M9,23.36a5.126,5.126,0,0,0,3.657,4.9v1.679a7.3,7.3,0,0,0,11.7,5.837v1.883a2.926,2.926,0,1,0,2.926,0V35.78a7.3,7.3,0,0,0,11.7-5.837V28.264a5.12,5.12,0,1,0-2.926,0v1.679a4.388,4.388,0,0,1-8.777,0V16.718a5.123,5.123,0,0,0,4.388-5.061V9.463A1.463,1.463,0,0,0,30.211,8H21.434a1.463,1.463,0,0,0-1.463,1.463v2.194a5.123,5.123,0,0,0,4.388,5.061V29.942a4.388,4.388,0,1,1-8.777,0V28.264A5.119,5.119,0,1,0,9,23.36Zm26.331,0a2.194,2.194,0,1,1,2.194,2.194A2.2,2.2,0,0,1,35.331,23.36ZM22.9,11.657v-.731h5.851v.731a2.2,2.2,0,0,1-2.194,2.194H25.091A2.2,2.2,0,0,1,22.9,11.657Zm-6.583,11.7a2.194,2.194,0,1,1-2.194-2.194A2.2,2.2,0,0,1,16.314,23.36Z" transform="translate(1009.598 272.757)" fill="gray"/>
  </g>
</svg>
