<svg xmlns="http://www.w3.org/2000/svg" width="90" height="90" viewBox="0 0 90 90">
  <g id="Group_454" data-name="Group 454" transform="translate(-754 -253)">
    <g id="Rectangle_249" data-name="Rectangle 249" transform="translate(754 253)" fill="#fff" stroke="gray" stroke-width="1">
      <rect width="90" height="90" rx="20" stroke="none"/>
      <rect x="0.5" y="0.5" width="89" height="89" rx="19.5" fill="none"/>
    </g>
    <g id="air-conditioning" transform="translate(782.598 284.121)">
      <path id="Path_148" data-name="Path 148" d="M30.688,46H2.957A2.96,2.96,0,0,0,0,48.955v9.857a2.96,2.96,0,0,0,2.957,2.957H30.688a2.96,2.96,0,0,0,2.957-2.957V48.955A2.96,2.96,0,0,0,30.688,46Zm.986,12.814a.987.987,0,0,1-.986.986H2.957a.987.987,0,0,1-.986-.986V48.955a.987.987,0,0,1,.986-.986H30.688a.987.987,0,0,1,.986.986Z" transform="translate(0 -45.998)" fill="gray"/>
      <path id="Path_149" data-name="Path 149" d="M84.774,196H60.986a.986.986,0,0,0,0,1.971H84.774a.986.986,0,1,0,0-1.971Z" transform="translate(-56.057 -186.141)" fill="gray"/>
      <circle id="Ellipse_21" data-name="Ellipse 21" cx="0.986" cy="0.986" r="0.986" transform="translate(23.788 5.914)" fill="gray"/>
      <circle id="Ellipse_22" data-name="Ellipse 22" cx="0.986" cy="0.986" r="0.986" transform="translate(27.731 5.914)" fill="gray"/>
      <path id="Path_150" data-name="Path 150" d="M62.424,325.751a8.118,8.118,0,0,0,4.488-7.261v-1.506a.986.986,0,0,0-1.971,0v1.506a6.113,6.113,0,0,1-3.4,5.5.986.986,0,0,0,.882,1.763Z" transform="translate(-56.989 -298.256)" fill="gray"/>
      <path id="Path_151" data-name="Path 151" d="M361.986,316a.986.986,0,0,0-.986.986v1.506a8.118,8.118,0,0,0,4.488,7.261.986.986,0,0,0,.882-1.763,6.113,6.113,0,0,1-3.4-5.5v-1.506A.986.986,0,0,0,361.986,316Z" transform="translate(-337.278 -298.256)" fill="gray"/>
      <path id="Path_152" data-name="Path 152" d="M242.971,324.869v-7.886a.986.986,0,1,0-1.971,0v7.886a.986.986,0,0,0,1.971,0Z" transform="translate(-225.163 -298.256)" fill="gray"/>
      <path id="Path_153" data-name="Path 153" d="M302.971,324.869v-7.886a.986.986,0,0,0-1.971,0v7.886a.986.986,0,0,0,1.971,0Z" transform="translate(-281.22 -298.256)" fill="gray"/>
      <path id="Path_154" data-name="Path 154" d="M182.971,324.869v-7.886a.986.986,0,0,0-1.971,0v7.886a.986.986,0,0,0,1.971,0Z" transform="translate(-169.106 -298.256)" fill="gray"/>
    </g>
  </g>
</svg>
