<svg id="Group317" xmlns="http://www.w3.org/2000/svg" width="24.591" height="24.591" viewBox="0 0 24.591 24.591">
  <g id="Rectangle_155" data-name="Rectangle 155" fill="none" stroke="#fff" stroke-width="2">
    <rect width="24.591" height="24.591" rx="6" stroke="none"/>
    <rect x="1" y="1" width="22.591" height="22.591" rx="5" fill="none"/>
  </g>
  <g id="Ellipse_54" data-name="Ellipse 54" transform="translate(4.792 4.798)" fill="none" stroke="#fff" stroke-width="1">
    <circle cx="1.5" cy="1.5" r="1.5" stroke="none"/>
    <circle cx="1.5" cy="1.5" r="1" fill="none"/>
  </g>
  <g id="Ellipse_57" data-name="Ellipse 57" transform="translate(10.792 4.798)" fill="none" stroke="#fff" stroke-width="1">
    <circle cx="1.5" cy="1.5" r="1.5" stroke="none"/>
    <circle cx="1.5" cy="1.5" r="1" fill="none"/>
  </g>
  <g id="Ellipse_58" data-name="Ellipse 58" transform="translate(16.792 4.798)" fill="none" stroke="#fff" stroke-width="1">
    <circle cx="1.5" cy="1.5" r="1.5" stroke="none"/>
    <circle cx="1.5" cy="1.5" r="1" fill="none"/>
  </g>
  <g id="Ellipse_55" data-name="Ellipse 55" transform="translate(4.792 10.798)" fill="none" stroke="#fff" stroke-width="1">
    <circle cx="1.5" cy="1.5" r="1.5" stroke="none"/>
    <circle cx="1.5" cy="1.5" r="1" fill="none"/>
  </g>
  <g id="Ellipse_56" data-name="Ellipse 56" transform="translate(4.792 16.798)" fill="none" stroke="#fff" stroke-width="1">
    <circle cx="1.5" cy="1.5" r="1.5" stroke="none"/>
    <circle cx="1.5" cy="1.5" r="1" fill="none"/>
  </g>
  <g id="future" transform="translate(8.784 8.784)">
    <path id="Path_146" data-name="Path 146" d="M8.437,4.091a.255.255,0,0,0-.255.255,3.835,3.835,0,1,1-2-3.371l-.318.318a.255.255,0,0,0,.18.435H7.259a.255.255,0,0,0,.255-.255V.255a.255.255,0,0,0-.435-.18L6.552.6A4.346,4.346,0,0,0,1.273,7.419,4.346,4.346,0,0,0,8.692,4.346.255.255,0,0,0,8.437,4.091Z" transform="translate(6.146 12.292) rotate(-135)" fill="#fff"/>
    <path id="Path_147" data-name="Path 147" d="M243.528,146.786h-1.845v-1.845a.34.34,0,0,0-.68,0v2.185a.34.34,0,0,0,.34.34h2.185a.34.34,0,1,0,0-.68Z" transform="translate(-235.126 -140.576)" fill="#fff"/>
  </g>
</svg>
