<svg id="Icon_ionic-ios-power" data-name="Icon ionic-ios-power" xmlns="http://www.w3.org/2000/svg" width="20.064" height="20.064" viewBox="0 0 20.064 20.064">
  <path id="Path_157" data-name="Path 157" d="M19.032,4.42a.953.953,0,0,0-.617-.225.952.952,0,0,0-.946,1.029.95.95,0,0,0,.334.648,8.1,8.1,0,1,1-13.4,6.134A8.024,8.024,0,0,1,7.27,5.873.949.949,0,0,0,7.38,4.53a.951.951,0,0,0-1.338-.11A9.916,9.916,0,0,0,2.5,12,10.032,10.032,0,1,0,19.032,4.42Z" transform="translate(-2.5 -1.928)" fill="#fff"/>
  <path id="Path_158" data-name="Path 158" d="M10.279,13.5a.968.968,0,0,0,.967-.967V3.467a.967.967,0,0,0-1.933,0v9.065A.968.968,0,0,0,10.279,13.5Z" transform="translate(-0.2 -2.5)" fill="#fff"/>
</svg>
