<svg xmlns="http://www.w3.org/2000/svg" width="12" height="12" viewBox="0 0 12 12">
  <path id="Icon_awesome-question-circle" data-name="Icon awesome-question-circle" d="M12.313,6.313a6,6,0,1,1-6-6A6,6,0,0,1,12.313,6.313ZM6.474,2.3a3.134,3.134,0,0,0-2.82,1.543.291.291,0,0,0,.066.393l.839.637a.29.29,0,0,0,.4-.051c.432-.548.729-.866,1.386-.866.494,0,1.106.318,1.106.8,0,.362-.3.548-.787.822C6.1,5.89,5.345,6.287,5.345,7.28v.1a.29.29,0,0,0,.29.29H6.99a.29.29,0,0,0,.29-.29V7.345c0-.689,2.013-.717,2.013-2.581A2.76,2.76,0,0,0,6.474,2.3Zm-.161,6A1.113,1.113,0,1,0,7.425,9.409,1.114,1.114,0,0,0,6.313,8.3Z" transform="translate(-0.313 -0.313)" fill="#fd4500"/>
</svg>
