<svg xmlns="http://www.w3.org/2000/svg" width="578" height="478.402" viewBox="0 0 578 478.402">
  <g id="Line_Chart1" data-name="Line Chart1" transform="translate(323.191 273.5)">
    <g id="Chart" transform="translate(-318.191 -273.5)">
      <g id="m1">
        <path id="Path_212" data-name="Path 212" d="M0,432c16.877-72.72,33.753-145.44,50.63-174s33.753-12.959,50.63,35,33.753,128.275,50.63,139,33.753-48.143,50.63-125,33.753-171.7,50.63-154,33.753,147.96,50.63,175,33.753-49.136,50.63-105,33.753-91.417,50.63-104,33.753-2.2,50.63,34,33.753,98.2,50.63,77,33.753-125.6,50.63-230" transform="translate(5.191 5)" fill="none" stroke="#00766c" stroke-width="5"/>
        <g id="Marks">
          <g id="Ellipse_83" data-name="Ellipse 83" transform="translate(0 432)" fill="#fff" stroke="#c20000" stroke-width="2">
            <circle cx="5" cy="5" r="5" stroke="none"/>
            <circle cx="5" cy="5" r="4" fill="none"/>
          </g>
          <g id="Ellipse_84" data-name="Ellipse 84" transform="translate(68.1 244)" fill="#fff" stroke="#c20000" stroke-width="2">
            <circle cx="5" cy="5" r="5" stroke="none"/>
            <circle cx="5" cy="5" r="4" fill="none"/>
          </g>
          <g id="Ellipse_85" data-name="Ellipse 85" transform="translate(112.425 328)" fill="#fff" stroke="#c20000" stroke-width="2">
            <circle cx="5" cy="5" r="5" stroke="none"/>
            <circle cx="5" cy="5" r="4" fill="none"/>
          </g>
          <g id="Ellipse_86" data-name="Ellipse 86" transform="translate(156.078 432)" fill="#fff" stroke="#c20000" stroke-width="2">
            <circle cx="5" cy="5" r="5" stroke="none"/>
            <circle cx="5" cy="5" r="4" fill="none"/>
          </g>
          <g id="Ellipse_87" data-name="Ellipse 87" transform="translate(202.707 307)" fill="#fff" stroke="#c20000" stroke-width="2">
            <circle cx="5" cy="5" r="5" stroke="none"/>
            <circle cx="5" cy="5" r="4" fill="none"/>
          </g>
          <g id="Ellipse_88" data-name="Ellipse 88" transform="translate(249.337 151)" fill="#fff" stroke="#c20000" stroke-width="2">
            <circle cx="5" cy="5" r="5" stroke="none"/>
            <circle cx="5" cy="5" r="4" fill="none"/>
          </g>
          <g id="Ellipse_89" data-name="Ellipse 89" transform="translate(311.966 334)" fill="#fff" stroke="#c20000" stroke-width="2">
            <circle cx="5" cy="5" r="5" stroke="none"/>
            <circle cx="5" cy="5" r="4" fill="none"/>
          </g>
          <g id="Ellipse_90" data-name="Ellipse 90" transform="translate(354.595 223)" fill="#fff" stroke="#c20000" stroke-width="2">
            <circle cx="5" cy="5" r="5" stroke="none"/>
            <circle cx="5" cy="5" r="4" fill="none"/>
          </g>
          <g id="Ellipse_91" data-name="Ellipse 91" transform="translate(419.224 114)" fill="#fff" stroke="#c20000" stroke-width="2">
            <circle cx="5" cy="5" r="5" stroke="none"/>
            <circle cx="5" cy="5" r="4" fill="none"/>
          </g>
          <g id="Ellipse_92" data-name="Ellipse 92" transform="translate(468.878 185)" fill="#fff" stroke="#c20000" stroke-width="2">
            <circle cx="5" cy="5" r="5" stroke="none"/>
            <circle cx="5" cy="5" r="4" fill="none"/>
          </g>
          <g id="Ellipse_93" data-name="Ellipse 93" transform="translate(499.209 235)" fill="#fff" stroke="#c20000" stroke-width="2">
            <circle cx="5" cy="5" r="5" stroke="none"/>
            <circle cx="5" cy="5" r="4" fill="none"/>
          </g>
          <g id="Ellipse_94" data-name="Ellipse 94" transform="translate(557)" fill="#fff" stroke="#1f78b4" stroke-width="2">
            <circle cx="5" cy="5" r="5" stroke="none"/>
            <circle cx="5" cy="5" r="4" fill="none"/>
          </g>
        </g>
      </g>
      <g id="m1-2" data-name="m1">
        <path id="Path_212-2" data-name="Path 212" d="M556.928,1.264c-16.877,72.72-33.753,145.44-50.63,174s-33.753,12.959-50.63-35-33.753-128.275-50.63-139-33.753,48.143-50.63,125-33.753,171.7-50.63,154-33.753-147.96-50.63-175-33.753,49.136-50.63,105-33.753,91.417-50.63,104-33.753,2.2-50.63-34-33.753-98.2-50.63-77-33.753,125.6-50.63,230" transform="translate(4.881 3.736)" fill="none" stroke="#fd4500" stroke-width="5"/>
        <g id="Marks-2" data-name="Marks">
          <g id="Ellipse_83-2" data-name="Ellipse 83" transform="translate(557)" fill="#00766c" stroke="#fd4500" stroke-width="2">
            <circle cx="5" cy="5" r="5" stroke="none"/>
            <circle cx="5" cy="5" r="4" fill="none"/>
          </g>
          <g id="Ellipse_84-2" data-name="Ellipse 84" transform="translate(488.9 188)" fill="#00766c" stroke="#fd4500" stroke-width="2">
            <circle cx="5" cy="5" r="5" stroke="none"/>
            <circle cx="5" cy="5" r="4" fill="none"/>
          </g>
          <g id="Ellipse_85-2" data-name="Ellipse 85" transform="translate(444.575 104)" fill="#00766c" stroke="#fd4500" stroke-width="2">
            <circle cx="5" cy="5" r="5" stroke="none"/>
            <circle cx="5" cy="5" r="4" fill="none"/>
          </g>
          <g id="Ellipse_86-2" data-name="Ellipse 86" transform="translate(400.922)" fill="#00766c" stroke="#fd4500" stroke-width="2">
            <circle cx="5" cy="5" r="5" stroke="none"/>
            <circle cx="5" cy="5" r="4" fill="none"/>
          </g>
          <g id="Ellipse_87-2" data-name="Ellipse 87" transform="translate(354.293 125)" fill="#00766c" stroke="#fd4500" stroke-width="2">
            <circle cx="5" cy="5" r="5" stroke="none"/>
            <circle cx="5" cy="5" r="4" fill="none"/>
          </g>
          <g id="Ellipse_88-2" data-name="Ellipse 88" transform="translate(307.663 281)" fill="#00766c" stroke="#fd4500" stroke-width="2">
            <circle cx="5" cy="5" r="5" stroke="none"/>
            <circle cx="5" cy="5" r="4" fill="none"/>
          </g>
          <g id="Ellipse_89-2" data-name="Ellipse 89" transform="translate(245.034 98)" fill="#00766c" stroke="#fd4500" stroke-width="2">
            <circle cx="5" cy="5" r="5" stroke="none"/>
            <circle cx="5" cy="5" r="4" fill="none"/>
          </g>
          <g id="Ellipse_90-2" data-name="Ellipse 90" transform="translate(202.405 209)" fill="#00766c" stroke="#fd4500" stroke-width="2">
            <circle cx="5" cy="5" r="5" stroke="none"/>
            <circle cx="5" cy="5" r="4" fill="none"/>
          </g>
          <g id="Ellipse_91-2" data-name="Ellipse 91" transform="translate(137.776 318)" fill="#00766c" stroke="#fd4500" stroke-width="2">
            <circle cx="5" cy="5" r="5" stroke="none"/>
            <circle cx="5" cy="5" r="4" fill="none"/>
          </g>
          <g id="Ellipse_92-2" data-name="Ellipse 92" transform="translate(88.122 247)" fill="#00766c" stroke="#fd4500" stroke-width="2">
            <circle cx="5" cy="5" r="5" stroke="none"/>
            <circle cx="5" cy="5" r="4" fill="none"/>
          </g>
          <g id="Ellipse_93-2" data-name="Ellipse 93" transform="translate(57.791 197)" fill="#00766c" stroke="#fd4500" stroke-width="2">
            <circle cx="5" cy="5" r="5" stroke="none"/>
            <circle cx="5" cy="5" r="4" fill="none"/>
          </g>
          <g id="Ellipse_94-2" data-name="Ellipse 94" transform="translate(0 432)" fill="#00766c" stroke="#fd4500" stroke-width="2">
            <circle cx="5" cy="5" r="5" stroke="none"/>
            <circle cx="5" cy="5" r="4" fill="none"/>
          </g>
        </g>
      </g>
    </g>
    <g id="X_Axis_Line" data-name="X Axis Line" transform="translate(-313.191 184.902)">
      <line id="Line_108" data-name="Line 108" x2="557" transform="translate(0 -0.402)" fill="none" stroke="#d3d3d3" stroke-width="1"/>
    </g>
    <g id="X_Axis" data-name="X Axis" transform="translate(-323.191 190.902)">
      <text id="Jan" transform="translate(10 10.598)" fill="#444" font-size="12" font-family="ArialMT, Arial"><tspan x="-9.674" y="0">Jan</tspan></text>
      <text id="Feb" transform="translate(67.1 11)" fill="#444" font-size="12" font-family="ArialMT, Arial"><tspan x="-10.339" y="0">Feb</tspan></text>
      <text id="Mar" transform="translate(111.469 11)" fill="#444" font-size="12" font-family="ArialMT, Arial"><tspan x="-10.333" y="0">Mar</tspan></text>
      <text id="Apr" transform="translate(162.028 11)" fill="#444" font-size="12" font-family="ArialMT, Arial"><tspan x="-9.337" y="0">Apr</tspan></text>
      <text id="May" transform="translate(212.778 11)" fill="#444" font-size="12" font-family="ArialMT, Arial"><tspan x="-11.335" y="0">May</tspan></text>
      <text id="Jun" transform="translate(263.387 11)" fill="#444" font-size="12" font-family="ArialMT, Arial"><tspan x="-9.674" y="0">Jun</tspan></text>
      <text id="Jul" transform="translate(314.046 11)" fill="#444" font-size="12" font-family="ArialMT, Arial"><tspan x="-7.67" y="0">Jul</tspan></text>
      <text id="Aug" transform="translate(364.635 11)" fill="#444" font-size="12" font-family="ArialMT, Arial"><tspan x="-10.676" y="0">Aug</tspan></text>
      <text id="Sep" transform="translate(415.255 11)" fill="#444" font-size="12" font-family="ArialMT, Arial"><tspan x="-10.676" y="0">Sep</tspan></text>
      <text id="Oct" transform="translate(466.013 11)" fill="#444" font-size="12" font-family="ArialMT, Arial"><tspan x="-9.334" y="0">Oct</tspan></text>
      <text id="Nov" transform="translate(510.209 11)" fill="#444" font-size="12" font-family="ArialMT, Arial"><tspan x="-10.67" y="0">Nov</tspan></text>
      <text id="Dec" transform="translate(567 10.598)" fill="#444" font-size="12" font-family="ArialMT, Arial"><tspan x="-10.67" y="0">Dec</tspan></text>
    </g>
  </g>
</svg>
